# xmcd CD database file
#
# Track frame offsets:
#	150
#	12495
#	25877
#	41972
#	56397
#	75000
#	87432
#	102217
#	115437
#	131622
#	154515
#	172752
#
# Disc length: 2553 seconds
#
# Revision: 0
# Processed by: cddbd v1.4PL0 Copyright (c) Steve Scherf et al.
# Submitted via: CDex 1.51
#
DISCID=8809f70c
DTITLE=Swiss Blues Authority - Just point it
DYEAR=2003
DGENRE=Blues
TTITLE0=Gimme a break
TTITLE1=Put me to the test
TTITLE2=Right time for the blues
TTITLE3=Better stay in bed
TTITLE4=Just point it
TTITLE5=Will she come home
TTITLE6=Enuff is enuff
TTITLE7=Number one
TTITLE8=The shuffle
TTITLE9=Easy money
TTITLE10=You dont love me
TTITLE11=Never did or never will
EXTD=YEAR: 2003
EXTT0=
EXTT1=
EXTT2=
EXTT3=
EXTT4=
EXTT5=
EXTT6=
EXTT7=
EXTT8=
EXTT9=
EXTT10=
EXTT11=
PLAYORDER=
